# xmcd
#
# Track frame offsets:
#	150
#	14239
#	26130
#	38169
#	50311
#	64101
#	80331
#	94894
#	109939
#	122846
#	135236
#	149318
#	162348
#	175381
#	187750
#	200054
#	211874
#	224231
#	236838
#	247671
#	261732
#	274348
#	287503
#	300026
#	305321
#	318523
#	332093
#	344504
#
# Disc length: 4780
#
# Revision: 1
# Processed by: cddbd v1.5.1PL0 Copyright (c) Steve Scherf et al.
# Submitted via: ExactAudioCopy v0.90a11
# Normalized: r0:DSETVAR1,TDELIM( - )
#
DISCID=a912aa1c
DTITLE=Various Artist - The Story of Boogie Woogie
DYEAR=1900
DGENRE=
TTITLE0=Give Me your Change - Willie Kelly
TTITLE1=Fairish Street Jive - Little Brother
TTITLE2=Cresent City Blues - Little Brother
TTITLE3=Shreveport Blues - Little Brother
TTITLE4=Honky Tonk Train Blues - Meade "Lux" Lewis
TTITLE5=Whistlin´ Blues - Meade "Lux" Lewis
TTITLE6=Boogie Woogie - Tomy Dorsey and His Orchester
TTITLE7=Saint Louis Stomp - Speckled Red Trio
TTITLE8=Yancey´s Stomp - jimmy Yancey
TTITLE9=State Street Special - jimmy Yancey
TTITLE10=Preachin The Blues - Sidney Bechet &His New Orleans Feetwarmers
TTITLE11=boogie Woogie On Saint louis Blues - Earl Hines And His Orchester
TTITLE12=Cow Cow Blues - Bob Zuke and His Delta Rythm band
TTITLE13=Yancey´s Bugle Call - Jimmy Yancey
TTITLE14=35th And Dearborn - Jimmy Yancey
TTITLE15=Slow And Easy Blues - Memphis Slim
TTITLE16=The Mellow Blues - Memphis Slim
TTITLE17=Old Taylor - Memphis Slim
TTITLE18=Cuttin´ The Boogie - Albert Ammons And Pete Johnson
TTITLE19=Barrelhouse Boogie - Albert Ammons And Pete Jonson
TTITLE20=Boogie Woogie Man - Albert Ammons And Pete Jonson
TTITLE21=Walkin´the Boogie - Albert Ammons And Pete Jonson
TTITLE22=Sixth Avenue Express - Albert Ammons And Pete Jonson
TTITLE23=Waller Jive - Fats Waller
TTITLE24=Texas Stomp - Fats Waller
TTITLE25=Chicago Brakdown - Big Maceo
TTITLE26=House Rent Boogie - Count Basie and His Orchestra
TTITLE27=Eddies Blues - Little Eddy Boyd Trio
EXTD=
EXTT0=
EXTT1=
EXTT2=
EXTT3=
EXTT4=
EXTT5=
EXTT6=
EXTT7=
EXTT8=
EXTT9=
EXTT10=
EXTT11=
EXTT12=
EXTT13=
EXTT14=
EXTT15=
EXTT16=
EXTT17=
EXTT18=
EXTT19=
EXTT20=
EXTT21=
EXTT22=
EXTT23=
EXTT24=
EXTT25=
EXTT26=
EXTT27=
PLAYORDER=
